<?xml version="1.0" standalone="no"?>
<!DOCTYPE svg PUBLIC "-//W3C//DTD SVG 20010904//EN"
 "http://www.w3.org/TR/2001/REC-SVG-20010904/DTD/svg10.dtd">
<svg version="1.0" xmlns="http://www.w3.org/2000/svg"
 width="458.000000pt" height="285.000000pt" viewBox="0 0 458.000000 285.000000"
 preserveAspectRatio="xMidYMid meet">

<g transform="translate(0.000000,285.000000) scale(0.100000,-0.100000)"
fill="#000000" stroke="none">
<path d="M0 1425 l0 -1425 2290 0 2290 0 0 1425 0 1425 -2290 0 -2290 0 0
-1425z m3580 1210 l0 -65 60 0 60 0 0 -435 0 -435 75 0 75 0 0 75 0 75 75 0
75 0 0 75 0 75 140 0 140 0 0 -290 0 -290 75 0 75 0 0 -360 0 -360 -75 0 -75
0 0 -65 0 -65 -75 0 -75 0 0 -75 0 -75 -715 0 -715 0 0 75 0 75 -60 0 -60 0 0
-75 0 -75 -725 0 -725 0 0 -75 0 -75 -65 0 -65 0 0 -75 0 -75 -150 0 -150 0 0
150 0 150 215 0 215 0 0 75 0 75 -65 0 -65 0 0 1000 0 1000 65 0 65 0 0 65 0
65 1225 0 1225 0 0 -65z m-3150 -1000 l0 -65 75 0 75 0 0 -75 0 -75 60 0 60 0
0 -75 0 -75 75 0 75 0 0 -75 0 -75 -135 0 -135 0 0 75 0 75 -75 0 -75 0 0 75
0 75 -75 0 -75 0 0 75 0 75 -75 0 -75 0 0 65 0 65 150 0 150 0 0 -65z m1420
-1440 l0 -75 -135 0 -135 0 0 75 0 75 135 0 135 0 0 -75z m1280 0 l0 -75 -140
0 -140 0 0 75 0 75 140 0 140 0 0 -75z m720 0 l0 -75 -135 0 -135 0 0 75 0 75
135 0 135 0 0 -75z"/>
<path d="M2130 2345 l0 -75 75 0 75 0 0 75 0 75 -75 0 -75 0 0 -75z"/>
<path d="M2580 2345 l0 -75 60 0 60 0 0 75 0 75 -60 0 -60 0 0 -75z"/>
<path d="M1430 2195 l0 -75 75 0 75 0 0 75 0 75 -75 0 -75 0 0 -75z"/>
<path d="M2580 2060 l0 -60 -75 0 -75 0 0 -290 0 -290 -150 0 -150 0 0 -75 0
-75 75 0 75 0 0 -285 0 -285 75 0 75 0 0 -65 0 -65 75 0 75 0 0 65 0 65 -75 0
-75 0 0 360 0 360 75 0 75 0 0 290 0 290 135 0 135 0 0 -75 0 -75 75 0 75 0 0
-75 0 -75 65 0 65 0 0 -65 0 -65 285 0 285 0 0 65 0 65 -285 0 -285 0 0 75 0
75 -65 0 -65 0 0 75 0 75 -75 0 -75 0 0 60 0 60 -135 0 -135 0 0 -60z"/>
<path d="M3130 2060 l0 -60 75 0 75 0 0 60 0 60 -75 0 -75 0 0 -60z"/>
<path d="M2000 1775 l0 -75 65 0 65 0 0 75 0 75 -65 0 -65 0 0 -75z"/>
<path d="M1580 1495 l0 -75 60 0 60 0 0 75 0 75 -60 0 -60 0 0 -75z"/>
<path d="M1280 1195 l0 -75 75 0 75 0 0 75 0 75 -75 0 -75 0 0 -75z"/>
<path d="M3000 1195 l0 -75 -75 0 -75 0 0 -60 0 -60 140 0 140 0 0 135 0 135
-65 0 -65 0 0 -75z"/>
<path d="M4000 1195 l0 -75 -75 0 -75 0 0 -60 0 -60 140 0 140 0 0 135 0 135
-65 0 -65 0 0 -75z"/>
<path d="M3580 1060 l0 -60 60 0 60 0 0 60 0 60 -60 0 -60 0 0 -60z"/>
<path d="M1850 925 l0 -75 75 0 75 0 0 75 0 75 -75 0 -75 0 0 -75z"/>
<path d="M1430 775 l0 -75 75 0 75 0 0 75 0 75 -75 0 -75 0 0 -75z"/>
<path d="M3000 710 l0 -140 500 0 500 0 0 140 0 140 -75 0 -75 0 0 -75 0 -75
-135 0 -135 0 0 75 0 75 -75 0 -75 0 0 -75 0 -75 -150 0 -150 0 0 75 0 75 -65
0 -65 0 0 -140z"/>
</g>
</svg>
